<mxfile host="Electron" modified="2023-06-11T07:51:43.458Z" agent="Mozilla/5.0 (Macintosh; Intel Mac OS X 10_15_7) AppleWebKit/537.36 (KHTML, like Gecko) draw.io/21.3.7 Chrome/112.0.5615.204 Electron/24.5.0 Safari/537.36" etag="HPpKCTq8xUheLxg1hBBW" version="21.3.7" type="device">
  <diagram id="C5RBs43oDa-KdzZeNtuy" name="Page-1">
    <mxGraphModel dx="989" dy="626" grid="1" gridSize="10" guides="1" tooltips="1" connect="1" arrows="1" fold="1" page="1" pageScale="1" pageWidth="827" pageHeight="1169" math="0" shadow="0">
      <root>
        <mxCell id="WIyWlLk6GJQsqaUBKTNV-0" />
        <mxCell id="WIyWlLk6GJQsqaUBKTNV-1" parent="WIyWlLk6GJQsqaUBKTNV-0" />
        <mxCell id="kp87lAzND-VFAbGns71B-6" style="edgeStyle=orthogonalEdgeStyle;rounded=0;orthogonalLoop=1;jettySize=auto;html=1;exitX=1;exitY=0.5;exitDx=0;exitDy=0;" edge="1" parent="WIyWlLk6GJQsqaUBKTNV-1" source="WIyWlLk6GJQsqaUBKTNV-3">
          <mxGeometry relative="1" as="geometry">
            <mxPoint x="260" y="100" as="targetPoint" />
          </mxGeometry>
        </mxCell>
        <mxCell id="WIyWlLk6GJQsqaUBKTNV-3" value="&lt;b&gt;&lt;span style=&quot;white-space: pre;&quot;&gt;&#x9;&lt;span style=&quot;white-space: pre;&quot;&gt;&#x9;&lt;/span&gt;&lt;/span&gt;Robot Model&lt;/b&gt;&lt;br&gt;&lt;ul style=&quot;&quot;&gt;&lt;li style=&quot;&quot;&gt;URDF model&lt;/li&gt;&lt;li style=&quot;&quot;&gt;CAD model&lt;/li&gt;&lt;li style=&quot;&quot;&gt;&lt;b&gt;NeRF model&lt;/b&gt;&lt;/li&gt;&lt;/ul&gt;" style="rounded=1;whiteSpace=wrap;html=1;fontSize=12;glass=0;strokeWidth=1;shadow=0;align=left;" parent="WIyWlLk6GJQsqaUBKTNV-1" vertex="1">
          <mxGeometry x="40" y="20" width="170" height="90" as="geometry" />
        </mxCell>
        <mxCell id="kp87lAzND-VFAbGns71B-5" style="edgeStyle=orthogonalEdgeStyle;rounded=0;orthogonalLoop=1;jettySize=auto;html=1;exitX=1;exitY=0.5;exitDx=0;exitDy=0;entryX=0;entryY=0.5;entryDx=0;entryDy=0;" edge="1" parent="WIyWlLk6GJQsqaUBKTNV-1" source="kp87lAzND-VFAbGns71B-3" target="kp87lAzND-VFAbGns71B-4">
          <mxGeometry relative="1" as="geometry" />
        </mxCell>
        <mxCell id="kp87lAzND-VFAbGns71B-3" value="&lt;b&gt;&lt;span style=&quot;white-space: pre;&quot;&gt;      S&lt;/span&gt;ynthetic Data Configs&lt;br&gt;&lt;/b&gt;" style="rounded=1;whiteSpace=wrap;html=1;fontSize=12;glass=0;strokeWidth=1;shadow=0;align=left;" vertex="1" parent="WIyWlLk6GJQsqaUBKTNV-1">
          <mxGeometry x="40" y="120" width="170" height="40" as="geometry" />
        </mxCell>
        <mxCell id="kp87lAzND-VFAbGns71B-9" style="edgeStyle=orthogonalEdgeStyle;rounded=0;orthogonalLoop=1;jettySize=auto;html=1;exitX=1;exitY=0.5;exitDx=0;exitDy=0;entryX=0;entryY=0.5;entryDx=0;entryDy=0;" edge="1" parent="WIyWlLk6GJQsqaUBKTNV-1" source="kp87lAzND-VFAbGns71B-4" target="kp87lAzND-VFAbGns71B-8">
          <mxGeometry relative="1" as="geometry" />
        </mxCell>
        <mxCell id="kp87lAzND-VFAbGns71B-4" value="&lt;b&gt;Synthetic Data Pipeline&lt;br&gt;&lt;/b&gt;" style="whiteSpace=wrap;html=1;aspect=fixed;" vertex="1" parent="WIyWlLk6GJQsqaUBKTNV-1">
          <mxGeometry x="260" y="60" width="80" height="80" as="geometry" />
        </mxCell>
        <mxCell id="kp87lAzND-VFAbGns71B-43" style="edgeStyle=orthogonalEdgeStyle;rounded=0;orthogonalLoop=1;jettySize=auto;html=1;exitX=1;exitY=0.5;exitDx=0;exitDy=0;entryX=0;entryY=0.5;entryDx=0;entryDy=0;" edge="1" parent="WIyWlLk6GJQsqaUBKTNV-1" source="kp87lAzND-VFAbGns71B-8" target="kp87lAzND-VFAbGns71B-37">
          <mxGeometry relative="1" as="geometry" />
        </mxCell>
        <mxCell id="kp87lAzND-VFAbGns71B-55" style="edgeStyle=orthogonalEdgeStyle;rounded=0;orthogonalLoop=1;jettySize=auto;html=1;exitX=1;exitY=0.5;exitDx=0;exitDy=0;entryX=0;entryY=0.5;entryDx=0;entryDy=0;" edge="1" parent="WIyWlLk6GJQsqaUBKTNV-1" source="kp87lAzND-VFAbGns71B-8" target="kp87lAzND-VFAbGns71B-53">
          <mxGeometry relative="1" as="geometry">
            <Array as="points">
              <mxPoint x="450" y="100" />
              <mxPoint x="450" y="240" />
            </Array>
          </mxGeometry>
        </mxCell>
        <mxCell id="kp87lAzND-VFAbGns71B-8" value="&lt;b style=&quot;font-size: 8px;&quot;&gt;BOP Data&lt;/b&gt;" style="rounded=1;whiteSpace=wrap;html=1;fontSize=8;glass=0;strokeWidth=1;shadow=0;align=center;" vertex="1" parent="WIyWlLk6GJQsqaUBKTNV-1">
          <mxGeometry x="360" y="88.13" width="70" height="23.75" as="geometry" />
        </mxCell>
        <mxCell id="kp87lAzND-VFAbGns71B-51" style="edgeStyle=orthogonalEdgeStyle;rounded=0;orthogonalLoop=1;jettySize=auto;html=1;exitX=1;exitY=0.5;exitDx=0;exitDy=0;entryX=0.5;entryY=0;entryDx=0;entryDy=0;" edge="1" parent="WIyWlLk6GJQsqaUBKTNV-1" source="kp87lAzND-VFAbGns71B-37" target="kp87lAzND-VFAbGns71B-53">
          <mxGeometry relative="1" as="geometry">
            <mxPoint x="600" y="210" as="targetPoint" />
          </mxGeometry>
        </mxCell>
        <mxCell id="kp87lAzND-VFAbGns71B-37" value="OnePose++ Specific" style="swimlane;startSize=20;horizontal=1;containerType=tree;" vertex="1" parent="WIyWlLk6GJQsqaUBKTNV-1">
          <mxGeometry x="480" y="33.76" width="210" height="132.49" as="geometry">
            <mxRectangle x="450" y="33.76" width="160" height="30" as="alternateBounds" />
          </mxGeometry>
        </mxCell>
        <mxCell id="kp87lAzND-VFAbGns71B-24" value="&lt;b&gt;convert data to OnePose++ format&lt;br&gt;&lt;/b&gt;" style="whiteSpace=wrap;html=1;aspect=fixed;" vertex="1" parent="kp87lAzND-VFAbGns71B-37">
          <mxGeometry x="20" y="32.5" width="80" height="80" as="geometry" />
        </mxCell>
        <mxCell id="kp87lAzND-VFAbGns71B-31" value="&lt;b style=&quot;font-size: 8px;&quot;&gt;OnePose++ Data&lt;/b&gt;" style="rounded=1;whiteSpace=wrap;html=1;fontSize=8;glass=0;strokeWidth=1;shadow=0;align=center;" vertex="1" parent="kp87lAzND-VFAbGns71B-37">
          <mxGeometry x="130" y="60.629999999999995" width="70" height="23.75" as="geometry" />
        </mxCell>
        <mxCell id="kp87lAzND-VFAbGns71B-32" value="" style="edgeStyle=orthogonalEdgeStyle;rounded=0;orthogonalLoop=1;jettySize=auto;html=1;" edge="1" parent="kp87lAzND-VFAbGns71B-37" source="kp87lAzND-VFAbGns71B-24" target="kp87lAzND-VFAbGns71B-31">
          <mxGeometry relative="1" as="geometry" />
        </mxCell>
        <mxCell id="kp87lAzND-VFAbGns71B-60" style="edgeStyle=orthogonalEdgeStyle;rounded=0;orthogonalLoop=1;jettySize=auto;html=1;exitX=1;exitY=0.5;exitDx=0;exitDy=0;entryX=0;entryY=0.5;entryDx=0;entryDy=0;dashed=1;dashPattern=12 12;" edge="1" parent="WIyWlLk6GJQsqaUBKTNV-1" source="kp87lAzND-VFAbGns71B-53" target="kp87lAzND-VFAbGns71B-59">
          <mxGeometry relative="1" as="geometry">
            <Array as="points">
              <mxPoint x="740" y="240" />
              <mxPoint x="740" y="100" />
            </Array>
          </mxGeometry>
        </mxCell>
        <mxCell id="kp87lAzND-VFAbGns71B-61" value="working Pose &lt;br&gt;Estimation Algorithm" style="edgeLabel;html=1;align=center;verticalAlign=middle;resizable=0;points=[];" vertex="1" connectable="0" parent="kp87lAzND-VFAbGns71B-60">
          <mxGeometry x="-0.3745" relative="1" as="geometry">
            <mxPoint x="29" as="offset" />
          </mxGeometry>
        </mxCell>
        <mxCell id="kp87lAzND-VFAbGns71B-53" value="&lt;b&gt;test/train Pose Estimation Algorithm&lt;/b&gt;" style="rounded=0;whiteSpace=wrap;html=1;" vertex="1" parent="WIyWlLk6GJQsqaUBKTNV-1">
          <mxGeometry x="525" y="210" width="120" height="60" as="geometry" />
        </mxCell>
        <mxCell id="kp87lAzND-VFAbGns71B-59" value="deploy on HoloLens" style="rounded=1;whiteSpace=wrap;html=1;" vertex="1" parent="WIyWlLk6GJQsqaUBKTNV-1">
          <mxGeometry x="780" y="70" width="120" height="60" as="geometry" />
        </mxCell>
      </root>
    </mxGraphModel>
  </diagram>
</mxfile>
